:SAMPLES-PER-SECOND 30
:FULLY-SPECIFIED
:DEGREES
369
root  -14.9874 34.7859 -7.65036 -172.944 3.45578 179.094
RightUpLeg  -9.4361 -7.95113 1.11166
RightLeg  8.63401 3.21299 0.279373
RightFoot  2.39721 0.00485406 0.255503
RightToes  -30.6483 -0.145475 -0.254387
Spine  -2.325 0.209242 -0.19111
Spine1  -4.71159 0.490035 0.287198
HEad  -67.5128 -1.22083 5.93519
LeftShoulder1  -1.94126e-019 -3.10601e-018 -2.51263e-017
LeftArm  -8.09958 25.8621 -81.8371
LeftForeArm  27.4069 -20.3957 -3.33311
LeftHand  -0.502847 -2.4445 7.67091
RightShoulder  -4.96962e-017 0 -2.36833e-017
RightArm  -18.3569 -24.7082 78.8937
RightForeArm  52.0532 15.8363 1.14882
RightHand  -0.490854 -0.663045 -12.0385
LeftUpLeg  -8.22595 -3.39983 -1.37119
LeftLeg  8.44741 13.8763 1.14425
LeftFoot  2.60148 -0.0180203 0.796388
LeftToes  -16.3476 1.31424e-006 1.14295e-007
370
root  -14.9839 34.7863 -7.64902 -172.937 3.36136 179.106
RightUpLeg  -9.43879 -8.06122 1.13508
RightLeg  8.63449 3.23032 0.280901
RightFoot  2.42296 0.00471439 0.257499
RightToes  -30.5562 -0.144922 -0.253411
Spine  -2.35274 0.194833 -0.211235
Spine1  -4.76783 0.461104 0.246755
HEad  -67.6708 -1.06975 6.00027
LeftShoulder1  -1.94126e-019 -3.10601e-018 -2.51263e-017
LeftArm  -8.17505 25.97 -81.8976
LeftForeArm  27.4817 -20.1603 -3.29063
LeftHand  -0.504224 -2.35155 7.63514
RightShoulder  -4.96962e-017 0 -2.36833e-017
RightArm  -18.4803 -24.652 78.7542
RightForeArm  51.9605 15.8014 1.15292
RightHand  -0.485694 -0.750916 -12.0968
LeftUpLeg  -8.05128 -3.35071 -1.33768
LeftLeg  8.06841 13.7315 1.04207
LeftFoot  2.71101 -0.0192541 0.815564
LeftToes  -16.654 1.31424e-006 1.14295e-007
371
root  -14.985 34.7856 -7.6434 -172.914 3.22084 179.102
RightUpLeg  -9.40943 -7.85844 1.15146
RightLeg  8.53483 2.90497 0.247644
RightFoot  2.52598 0.00525337 0.249798
RightToes  -29.9473 -0.143558 -0.2516
Spine  -2.35886 0.189078 -0.235774
Spine1  -4.78106 0.448613 0.195444
HEad  -67.6879 -1.05297 6.09085
LeftShoulder1  -1.94126e-019 -3.10601e-018 -2.51263e-017
LeftArm  -8.06223 25.9829 -81.9585
LeftForeArm  27.8475 -19.8206 -3.23619
LeftHand  -0.502591 -2.47965 7.62788
RightShoulder  -4.96962e-017 0 -2.36833e-017
RightArm  -18.8054 -24.6009 78.6657
RightForeArm  51.9012 15.6447 1.16234
RightHand  -0.475082 -0.821843 -12.1339
LeftUpLeg  -7.92423 -3.44566 -1.32336
LeftLeg  7.72787 13.6897 0.957994
LeftFoot  2.85795 -0.0213727 0.848493
LeftToes  -17.1136 1.31424e-006 1.14295e-007
372
root  -14.993 34.7821 -7.62994 -172.9 2.99049 179.105
RightUpLeg  -9.3813 -7.87147 1.17039
RightLeg  8.43985 2.73684 0.228813
RightFoot  2.65656 0.00537041 0.248126
RightToes  -29.4074 -0.139861 -0.247826
Spine  -2.33542 0.180057 -0.260741
Spine1  -4.73615 0.429431 0.141044
HEad  -67.7674 -1.14387 6.17458
LeftShoulder1  -1.94126e-019 -3.10601e-018 -2.51263e-017
LeftArm  -7.76162 25.9389 -81.978
LeftForeArm  28.2544 -19.5367 -3.18906
LeftHand  -0.49206 -2.50165 7.45333
RightShoulder  -4.96962e-017 0 -2.36833e-017
RightArm  -19.1632 -24.5356 78.6321
RightForeArm  52.129 15.3919 1.17295
RightHand  -0.470969 -0.902573 -12.1424
LeftUpLeg  -7.93696 -3.6653 -1.31016
LeftLeg  7.63445 13.6767 0.934928
LeftFoot  2.95229 -0.0227554 0.869984
LeftToes  -17.1508 1.31424e-006 1.14295e-007
373
root  -15.0027 34.7785 -7.61396 -172.859 2.6964 179.156
RightUpLeg  -9.35676 -8.11968 1.24701
RightLeg  8.28081 2.76569 0.223494
RightFoot  2.93124 0.00449026 0.260701
RightToes  -28.3782 -0.132914 -0.240538
Spine  -2.28264 0.167876 -0.266384
Spine1  -4.6316 0.403298 0.125642
HEad  -67.84 -1.2432 6.14003
LeftShoulder1  -1.94126e-019 -3.10601e-018 -2.51263e-017
LeftArm  -7.5546 25.837 -82.008
LeftForeArm  28.6514 -19.2984 -3.15195
LeftHand  -0.489805 -2.56678 7.36398
RightShoulder  -4.96962e-017 0 -2.36833e-017
RightArm  -19.6067 -24.4914 78.6187
RightForeArm  52.6894 15.1636 1.17838
RightHand  -0.480793 -0.824931 -12.1934
LeftUpLeg  -8.09695 -3.76674 -1.2536
LeftLeg  7.73241 13.5079 0.946561
LeftFoot  3.1415 -0.0250436 0.90555
LeftToes  -17.1003 1.31424e-006 1.14295e-007
374
root  -15.013 34.7758 -7.58924 -172.796 2.45842 179.211
RightUpLeg  -9.34406 -8.15609 1.32988
RightLeg  8.07224 2.6353 0.203367
RightFoot  3.21637 0.0041115 0.266113
RightToes  -27.2364 -0.125361 -0.232307
Spine  -2.21998 0.186391 -0.261733
Spine1  -4.50605 0.437735 0.138169
HEad  -67.9146 -1.35585 6.06123
LeftShoulder1  -1.94126e-019 -3.10601e-018 -2.51263e-017
LeftArm  -7.4555 25.7313 -82.0728
LeftForeArm  28.841 -19.0925 -3.12298
LeftHand  -0.48888 -2.61267 7.36537
RightShoulder  -4.96962e-017 0 -2.36833e-017
RightArm  -19.8263 -24.5273 78.5818
RightForeArm  52.899 15.0487 1.18448
RightHand  -0.481623 -0.819722 -12.2011
LeftUpLeg  -8.30619 -3.84102 -1.1912
LeftLeg  7.85905 13.3508 0.965118
LeftFoot  3.396 -0.0283182 0.956447
LeftToes  -17.155 1.31424e-006 1.14295e-007
375
root  -15.0208 34.7717 -7.56429 -172.717 2.20744 179.267
RightUpLeg  -9.34834 -8.20767 1.41762
RightLeg  7.87889 2.46353 0.18183
RightFoot  3.39286 0.00438434 0.262214
RightToes  -26.4296 -0.120123 -0.226401
Spine  -2.16318 0.19581 -0.257292
Spine1  -4.39248 0.453705 0.137892
HEad  -67.9279 -1.37574 6.16951
LeftShoulder1  -1.94126e-019 -3.10601e-018 -2.51263e-017
LeftArm  -7.45132 25.6945 -82.0843
LeftForeArm  28.8403 -18.9865 -3.10865
LeftHand  -0.488181 -2.60278 7.37505
RightShoulder  -4.96962e-017 0 -2.36833e-017
RightArm  -19.9568 -24.5911 78.5978
RightForeArm  53.0656 14.9521 1.1905
RightHand  -0.485733 -0.767132 -12.1706
LeftUpLeg  -8.49412 -4.12593 -1.11681
LeftLeg  7.93665 13.3742 0.98481
LeftFoot  3.52809 -0.0303981 0.988776
LeftToes  -17.0005 1.31424e-006 1.14295e-007
376
root  -15.0293 34.7657 -7.54936 -172.659 1.9873 179.295
RightUpLeg  -9.36164 -8.2313 1.45962
RightLeg  7.77194 2.29472 0.165143
RightFoot  3.50465 0.0047103 0.257557
RightToes  -25.9603 -0.114952 -0.222932
Spine  -2.13365 0.191385 -0.263772
Spine1  -4.33376 0.441841 0.123605
HEad  -67.7776 -1.36824 6.16304
LeftShoulder1  -1.94126e-019 -3.10601e-018 -2.51263e-017
LeftArm  -7.57341 25.7775 -82.0792
LeftForeArm  28.9027 -18.8195 -3.07837
LeftHand  -0.489487 -2.59949 7.33723
RightShoulder  -4.96962e-017 0 -2.36833e-017
RightArm  -20.0875 -24.6508 78.6388
RightForeArm  53.4653 14.7888 1.19965
RightHand  -0.487707 -0.742868 -12.1588
LeftUpLeg  -8.59775 -4.17836 -1.08389
LeftLeg  7.92372 13.216 0.970387
LeftFoot  3.61148 -0.030962 0.99754
LeftToes  -16.7924 1.31424e-006 1.14295e-007
377
root  -15.0358 34.7624 -7.53435 -172.583 1.69368 179.339
RightUpLeg  -9.44395 -8.47664 1.54021
RightLeg  7.76964 2.3013 0.165521
RightFoot  3.57976 0.00454402 0.259933
RightToes  -25.0048 -0.111079 -0.215794
Spine  -2.10219 0.149876 -0.254643
Spine1  -4.27099 0.356956 0.142021
HEad  -67.4558 -1.26734 6.09627
LeftShoulder1  -1.94126e-019 -3.10601e-018 -2.51263e-017
LeftArm  -7.77307 25.8069 -82.1035
LeftForeArm  29.1242 -18.5022 -3.02605
LeftHand  -0.489275 -2.57375 7.40373
RightShoulder  -4.96962e-017 0 -2.36833e-017
RightArm  -20.3863 -24.672 78.6982
RightForeArm  53.9309 14.6652 1.20468
RightHand  -0.496005 -0.664019 -12.1673
LeftUpLeg  -8.68899 -4.49946 -1.01578
LeftLeg  7.87027 13.2795 0.962634
LeftFoot  3.77135 -0.0336345 1.03908
LeftToes  -16.479 1.31424e-006 1.14295e-007
378
root  -15.0404 34.7596 -7.51587 -172.522 1.42581 179.351
RightUpLeg  -9.51559 -8.50566 1.57801
RightLeg  7.7742 2.069 0.14909
RightFoot  3.63671 0.00537437 0.248069
RightToes  -24.5996 -0.109201 -0.212818
Spine  -2.07002 0.113657 -0.258418
Spine1  -4.20657 0.282867 0.135261
HEad  -67.2176 -1.14391 6.04396
LeftShoulder1  -1.94126e-019 -3.10601e-018 -2.51263e-017
LeftArm  -7.89355 25.8418 -82.0435
LeftForeArm  29.109 -18.2574 -2.99085
LeftHand  -0.490143 -2.53605 7.44948
RightShoulder  -4.96962e-017 0 -2.36833e-017
RightArm  -20.6312 -24.7172 78.7821
RightForeArm  53.9309 14.6261 1.20925
RightHand  -0.498872 -0.688214 -12.1917
LeftUpLeg  -8.75096 -4.56348 -0.987178
LeftLeg  7.71767 13.0544 0.911973
LeftFoot  3.88152 -0.0342468 1.0486
LeftToes  -16.9966 1.31424e-006 1.14295e-007
